<svg width="50" height="50" viewBox="0 0 50 50" fill="none" xmlns="http://www.w3.org/2000/svg">
<path d="M25 50C38.8071 50 50 38.8071 50 25C50 11.1929 38.8071 0 25 0C11.1929 0 0 11.1929 0 25C0 38.8071 11.1929 50 25 50Z" fill="#C19434"/>
<path d="M36.0893 22.8091C37.2529 22.7978 38.1837 23.7287 38.1725 24.8923C38.1667 25.4726 37.9264 26.0015 37.5415 26.3864C37.1569 26.7711 36.6279 27.0114 36.0476 27.0171L27.1054 27.1054L27.0171 36.0476C27.0114 36.6279 26.7711 37.1569 26.3864 37.5415C26.0015 37.9264 25.4726 38.1667 24.8923 38.1725C23.7287 38.1837 22.7978 37.2529 22.8091 36.0893L22.8979 27.1471L13.9557 27.2359C12.7921 27.2471 11.8612 26.3163 11.8725 25.1527C11.8843 23.9891 12.8338 23.0396 13.9973 23.0278L22.9395 22.9395L23.0278 13.9973C23.0396 12.8338 23.9891 11.8843 25.1527 11.8725C26.3163 11.8612 27.2471 12.7921 27.2359 13.9557L27.1471 22.8979L36.0893 22.8091Z" fill="#FAFAFA"/>
</svg>
