<svg width="51" height="50" viewBox="0 0 51 50" fill="none" xmlns="http://www.w3.org/2000/svg">
<path d="M25.5 0C11.4387 0 0 11.2144 0 25C0 38.7856 11.4387 50 25.5 50C39.5613 50 51 38.7856 51 25C51 11.2144 39.5613 0 25.5 0Z" fill="#C1348E"/>
<path d="M34.8905 31.2603C35.7212 32.0751 35.7212 33.3916 34.8905 34.2064C34.4761 34.6127 33.9322 34.8167 33.3878 34.8167C32.8439 34.8167 32.2999 34.6127 31.8855 34.2064L25.5 27.9457L19.1145 34.2064C18.7001 34.6127 18.1561 34.8167 17.6122 34.8167C17.0678 34.8167 16.5239 34.6127 16.1095 34.2064C15.2788 33.3916 15.2788 32.0751 16.1095 31.2603L22.4954 25L16.1095 18.7397C15.2788 17.9249 15.2788 16.6084 16.1095 15.7936C16.9406 14.9792 18.2834 14.9792 19.1145 15.7936L25.5 22.0543L31.8855 15.7936C32.7166 14.9792 34.0594 14.9792 34.8905 15.7936C35.7212 16.6084 35.7212 17.9249 34.8905 18.7397L28.5046 25L34.8905 31.2603Z" fill="#FAFAFA"/>
</svg>
